<svg id="Capa_1" data-name="Capa 1" xmlns="http://www.w3.org/2000/svg" viewBox="0 0 155.82 114.7"><defs><style>.cls-1{fill:#241536;}.cls-2{fill:none;stroke:#241536;stroke-miterlimit:10;stroke-width:2.88px;}</style></defs><title>logo</title><path class="cls-1" d="M207.27,300s7.13,12.43-2.57,23.71c0,0,12.32,2.73,13.67-10.23A13.19,13.19,0,0,0,207.27,300Z" transform="translate(-106.46 -285.21)"/><path class="cls-2" d="M206.22,310.49c0,13.16-11.2,23.83-25,23.83s-25.68-9-25.68-22.16a27.36,27.36,0,0,1,10.33-20.48,25.64,25.64,0,0,1,15.35-5A25.32,25.32,0,0,1,202,297.16,22.94,22.94,0,0,1,206.22,310.49Z" transform="translate(-106.46 -285.21)"/><path class="cls-1" d="M154.47,300s-6.45,12.34,1.34,23.88c0,0-12.51,1.68-12.75-11.35C143.06,312.57,142.53,301.52,154.47,300Z" transform="translate(-106.46 -285.21)"/><path class="cls-1" d="M207.67,340c-6.62-5.64-5.29-11.24-2.32-18.48,5.14-12.56-3.4-27-15.81-30.7-13.4-4-28.22,2.32-33.21,15.7a25.92,25.92,0,0,0-1.58,10.61c.25,4.26,2.12,7.64,3.47,11.59,2.48,7.23-4.05,13.37-9.62,17-6.75,4.35-5.23,5.75-1.21,6a17.53,17.53,0,0,0,9.41-2.17c1.33-.67,5.87-2.73,6.51-4.12-1.75,3.84-5.33,10.49-3.09,14.73,2.75,5.22,9.68-4.59,11.06-6.61,1.24-1.81,6.2-11.72,9.18-6.77,2.72,4.52,1.24,11,5.15,15.09,4.74,4.94,7.38-2.64,7.42-6.38,0-2.36-.88-13.82,4.31-8.64,3.09,3.08,7.64,10.26,12.78,9.66,5.59-.65-3.19-9.8-4.08-11.35.78.62,7.74,4.93,7.76,1.38C213.82,343.77,209.46,341.48,207.67,340Zm-43.46-32.2a2.13,2.13,0,1,1-.34-3.16A2.26,2.26,0,0,1,164.21,307.75Zm6.42-5.15c-1.56,1.45-3.75,1.61-4.9.37s-.82-3.42.74-4.86,3.75-1.6,4.9-.36S172.19,301.16,170.63,302.6Z" transform="translate(-106.46 -285.21)"/><path class="cls-1" d="M118.62,377.56l-8.69,20.8a2,2,0,0,1-.69,1,1.72,1.72,0,0,1-1,.35,1.65,1.65,0,0,1-1.32-.49,1.76,1.76,0,0,1-.42-1.21,2.2,2.2,0,0,1,.11-.62l9.81-23.7a1.87,1.87,0,0,1,.75-1,1.79,1.79,0,0,1,1.14-.31,1.88,1.88,0,0,1,1.12.35,2,2,0,0,1,.73,1L129.81,397a2.16,2.16,0,0,1,.15.78,1.8,1.8,0,0,1-.55,1.37,1.86,1.86,0,0,1-1.26.52,1.73,1.73,0,0,1-1.06-.37,2.12,2.12,0,0,1-.71-.95l-8.77-20.72Zm-7.14,15.32,1.73-3.7h10.93l.65,3.7Z" transform="translate(-106.46 -285.21)"/><path class="cls-1" d="M134.94,376.52a2.6,2.6,0,0,1-1.62-.41,1.67,1.67,0,0,1-.5-1.37v-.61a1.56,1.56,0,0,1,.54-1.36,2.85,2.85,0,0,1,1.62-.38,2.66,2.66,0,0,1,1.66.4,1.61,1.61,0,0,1,.5,1.34v.61a1.61,1.61,0,0,1-.52,1.39A2.81,2.81,0,0,1,134.94,376.52Zm2,21a1.94,1.94,0,0,1-.54,1.41,2,2,0,0,1-2.78,0,1.94,1.94,0,0,1-.54-1.41V381a1.91,1.91,0,0,1,.56-1.4,2,2,0,0,1,2.76,0,1.93,1.93,0,0,1,.54,1.4Z" transform="translate(-106.46 -285.21)"/><path class="cls-1" d="M143.4,389.53A1.93,1.93,0,0,1,142,389a1.83,1.83,0,0,1-.58-1.37,1.73,1.73,0,0,1,.58-1.37,2,2,0,0,1,1.39-.53h7.25a1.93,1.93,0,0,1,1.39.56,1.89,1.89,0,0,1,.58,1.41A1.69,1.69,0,0,1,152,389a2,2,0,0,1-1.39.53Z" transform="translate(-106.46 -285.21)"/><path class="cls-1" d="M160.07,399.52a2.46,2.46,0,0,1-1.62-.56,1.74,1.74,0,0,1-.7-1.41V374.47a1.91,1.91,0,0,1,2-2h10.89a7.42,7.42,0,0,1,3.82,1,7.85,7.85,0,0,1,2.8,2.81,8,8,0,0,1,1.06,4.15,7.21,7.21,0,0,1-.62,2.94A8.45,8.45,0,0,1,176,385.9a7.46,7.46,0,0,1-2.35,1.66l-.43-.77a6.53,6.53,0,0,1,2.09,1.25,6.07,6.07,0,0,1,1.41,1.85,5.91,5.91,0,0,1,.56,2.38c.07.79.14,1.46.21,2a5.36,5.36,0,0,0,.29,1.3,1.48,1.48,0,0,0,.69.77,1.69,1.69,0,0,1,.87,1.16,1.7,1.7,0,0,1-1.22,2,2.46,2.46,0,0,1-1.08,0,2.67,2.67,0,0,1-.88-.29,4.92,4.92,0,0,1-1.28-1.1,5.39,5.39,0,0,1-1-2,11.81,11.81,0,0,1-.39-3.36,3.87,3.87,0,0,0-.31-1.64,3.19,3.19,0,0,0-.84-1.14,3.26,3.26,0,0,0-1.28-.66,6.32,6.32,0,0,0-1.62-.19h-8.18l.54-.81v9.22a2.12,2.12,0,0,1-.47,1.41A1.53,1.53,0,0,1,160.07,399.52Zm1.24-13.78h9.22a2.82,2.82,0,0,0,1.7-.69,5,5,0,0,0,1.35-1.84,6.23,6.23,0,0,0,.54-2.64,4.58,4.58,0,0,0-1.1-3.11,3.37,3.37,0,0,0-2.6-1.25h-9l.43-1v11.31Z" transform="translate(-106.46 -285.21)"/><path class="cls-1" d="M185.28,376.52a2.62,2.62,0,0,1-1.63-.41,1.67,1.67,0,0,1-.5-1.37v-.61a1.56,1.56,0,0,1,.54-1.36,2.85,2.85,0,0,1,1.62-.38,2.64,2.64,0,0,1,1.66.4,1.62,1.62,0,0,1,.51,1.34v.61a1.61,1.61,0,0,1-.53,1.39A2.79,2.79,0,0,1,185.28,376.52Zm2,21a1.94,1.94,0,0,1-.54,1.41,2,2,0,0,1-2.78,0,1.94,1.94,0,0,1-.54-1.41V381a1.91,1.91,0,0,1,.56-1.4,1.85,1.85,0,0,1,1.37-.56,1.82,1.82,0,0,1,1.39.56,1.93,1.93,0,0,1,.54,1.4Z" transform="translate(-106.46 -285.21)"/><path class="cls-1" d="M192.18,379.45h9.07a1.8,1.8,0,0,1,1.3.52,1.76,1.76,0,0,1,.52,1.3,1.67,1.67,0,0,1-.52,1.27,1.82,1.82,0,0,1-1.3.5h-9.07a1.78,1.78,0,0,1-1.81-1.81,1.7,1.7,0,0,1,.52-1.28A1.81,1.81,0,0,1,192.18,379.45Zm4.06-5a1.87,1.87,0,0,1,1.39.56,2,2,0,0,1,.54,1.41v17.91a2.28,2.28,0,0,0,.23,1.12,1.2,1.2,0,0,0,.64.58,2.34,2.34,0,0,0,.83.15,1.79,1.79,0,0,0,.75-.15,1.89,1.89,0,0,1,.79-.15,1.14,1.14,0,0,1,.85.42,1.64,1.64,0,0,1,.38,1.16,1.69,1.69,0,0,1-1,1.5,4.22,4.22,0,0,1-2.16.58,13.37,13.37,0,0,1-1.54-.11,4.74,4.74,0,0,1-1.72-.58,3.6,3.6,0,0,1-1.39-1.49,6,6,0,0,1-.56-2.87V376.4a1.89,1.89,0,0,1,.58-1.41A1.93,1.93,0,0,1,196.24,374.43Z" transform="translate(-106.46 -285.21)"/><path class="cls-1" d="M217.54,378.87a6.29,6.29,0,0,1,4.4,1.41,6.94,6.94,0,0,1,2.05,3.8l-.62-.19.27-.62a7.86,7.86,0,0,1,1.53-2,8.37,8.37,0,0,1,2.45-1.7,7,7,0,0,1,3-.68A6.61,6.61,0,0,1,234.8,380a5.94,5.94,0,0,1,2,3.05,14.56,14.56,0,0,1,.58,4.27v10.22a1.94,1.94,0,0,1-.54,1.41,2,2,0,0,1-2.78,0,1.94,1.94,0,0,1-.54-1.41V387.36a7.76,7.76,0,0,0-.37-2.47,3.57,3.57,0,0,0-1.27-1.79,4.07,4.07,0,0,0-2.49-.68,5.26,5.26,0,0,0-2.7.68,4.93,4.93,0,0,0-1.81,1.79,4.78,4.78,0,0,0-.66,2.47v10.19a1.94,1.94,0,0,1-.54,1.41,2,2,0,0,1-2.78,0,1.94,1.94,0,0,1-.54-1.41V387.33a7.61,7.61,0,0,0-.37-2.46,3.58,3.58,0,0,0-1.25-1.77,4,4,0,0,0-2.47-.68,5.22,5.22,0,0,0-2.67.68,4.83,4.83,0,0,0-1.79,1.77,4.78,4.78,0,0,0-.64,2.46v10.22a1.88,1.88,0,0,1-.56,1.41,1.83,1.83,0,0,1-1.37.56,1.91,1.91,0,0,1-2-2V381.19a1.91,1.91,0,0,1,.56-1.41,2,2,0,0,1,1.41-.56,1.91,1.91,0,0,1,1.93,2v2.28l-.73.42a6.68,6.68,0,0,1,.89-1.74,7.44,7.44,0,0,1,1.56-1.62,8.33,8.33,0,0,1,2.1-1.19A6.71,6.71,0,0,1,217.54,378.87Z" transform="translate(-106.46 -285.21)"/><path class="cls-1" d="M262.28,389.37a10.84,10.84,0,0,1-1.35,5.46,9.88,9.88,0,0,1-3.67,3.73,10.73,10.73,0,0,1-10.42,0,9.94,9.94,0,0,1-3.69-3.73,11.64,11.64,0,0,1,0-11,10.11,10.11,0,0,1,3.69-3.74,10.21,10.21,0,0,1,14.09,3.74A10.94,10.94,0,0,1,262.28,389.37Zm-3.86,0a7.66,7.66,0,0,0-.85-3.68,6.42,6.42,0,0,0-2.3-2.46,6,6,0,0,0-3.22-.88,6.13,6.13,0,0,0-3.24.88,6.39,6.39,0,0,0-2.32,2.46,8.28,8.28,0,0,0,0,7.31,6.35,6.35,0,0,0,2.32,2.47,6.14,6.14,0,0,0,3.24.89,6,6,0,0,0,3.22-.89,6.38,6.38,0,0,0,2.3-2.47A7.63,7.63,0,0,0,258.42,389.37Z" transform="translate(-106.46 -285.21)"/></svg>