<svg id="Capa_1" data-name="Capa 1" xmlns="http://www.w3.org/2000/svg" viewBox="0 0 75.32 78.22"><defs><style>.cls-1{fill:#241536;}.cls-2{fill:none;stroke:#241536;stroke-miterlimit:10;stroke-width:2.88px;}</style></defs><title>pulpologo</title><path class="cls-1" d="M207.27,300s7.13,12.43-2.57,23.71c0,0,12.32,2.73,13.67-10.23A13.19,13.19,0,0,0,207.27,300Z" transform="translate(-143.05 -285.21)"/><path class="cls-2" d="M206.22,310.49c0,13.16-11.2,23.83-25,23.83s-25.68-9-25.68-22.16a27.36,27.36,0,0,1,10.33-20.48,25.64,25.64,0,0,1,15.35-5A25.32,25.32,0,0,1,202,297.16,22.94,22.94,0,0,1,206.22,310.49Z" transform="translate(-143.05 -285.21)"/><path class="cls-1" d="M154.47,300s-6.45,12.34,1.34,23.88c0,0-12.51,1.68-12.75-11.35C143.06,312.57,142.53,301.52,154.47,300Z" transform="translate(-143.05 -285.21)"/><path class="cls-1" d="M207.67,340c-6.62-5.64-5.29-11.24-2.32-18.48,5.14-12.56-3.4-27-15.81-30.7-13.4-4-28.22,2.32-33.21,15.7a25.92,25.92,0,0,0-1.58,10.61c.25,4.26,2.12,7.64,3.47,11.59,2.48,7.23-4.05,13.37-9.62,17-6.75,4.35-5.23,5.75-1.21,6a17.53,17.53,0,0,0,9.41-2.17c1.33-.67,5.87-2.73,6.51-4.12-1.75,3.84-5.33,10.49-3.09,14.73,2.75,5.22,9.68-4.59,11.06-6.61,1.24-1.81,6.2-11.72,9.18-6.77,2.72,4.52,1.24,11,5.15,15.09,4.74,4.94,7.38-2.64,7.42-6.38,0-2.36-.88-13.82,4.31-8.64,3.09,3.08,7.64,10.26,12.78,9.66,5.59-.65-3.19-9.8-4.08-11.35.78.62,7.74,4.93,7.76,1.38C213.82,343.77,209.46,341.48,207.67,340Zm-43.46-32.2a2.13,2.13,0,1,1-.34-3.16A2.26,2.26,0,0,1,164.21,307.75Zm6.42-5.15c-1.56,1.45-3.75,1.61-4.9.37s-.82-3.42.74-4.86,3.75-1.6,4.9-.36S172.19,301.16,170.63,302.6Z" transform="translate(-143.05 -285.21)"/></svg>