<svg width="32" height="32" viewBox="0 0 32 32" fill="none" xmlns="http://www.w3.org/2000/svg">
<path d="M16 23.3333C17.6667 23.3333 19.0834 22.75 20.25 21.5833C21.4167 20.4167 22 19 22 17.3333C22 15.6667 21.4167 14.25 20.25 13.0833C19.0834 11.9167 17.6667 11.3333 16 11.3333C14.3334 11.3333 12.9167 11.9167 11.75 13.0833C10.5834 14.25 10 15.6667 10 17.3333C10 19 10.5834 20.4167 11.75 21.5833C12.9167 22.75 14.3334 23.3333 16 23.3333ZM16 20.6667C15.0667 20.6667 14.2778 20.3444 13.6334 19.7C12.9889 19.0556 12.6667 18.2667 12.6667 17.3333C12.6667 16.4 12.9889 15.6111 13.6334 14.9667C14.2778 14.3222 15.0667 14 16 14C16.9334 14 17.7222 14.3222 18.3667 14.9667C19.0111 15.6111 19.3334 16.4 19.3334 17.3333C19.3334 18.2667 19.0111 19.0556 18.3667 19.7C17.7222 20.3444 16.9334 20.6667 16 20.6667ZM5.33335 28C4.60002 28 3.97224 27.7389 3.45002 27.2167C2.9278 26.6944 2.66669 26.0667 2.66669 25.3333V9.33333C2.66669 8.6 2.9278 7.97222 3.45002 7.45C3.97224 6.92778 4.60002 6.66667 5.33335 6.66667H9.53335L12 4H20L22.4667 6.66667H26.6667C27.4 6.66667 28.0278 6.92778 28.55 7.45C29.0722 7.97222 29.3334 8.6 29.3334 9.33333V25.3333C29.3334 26.0667 29.0722 26.6944 28.55 27.2167C28.0278 27.7389 27.4 28 26.6667 28H5.33335ZM5.33335 25.3333H26.6667V9.33333H21.2667L18.8334 6.66667H13.1667L10.7334 9.33333H5.33335V25.3333Z" fill="#FD1887"/>
</svg>
