<svg width="14" height="17" viewBox="0 0 14 17" fill="none" xmlns="http://www.w3.org/2000/svg">
<g clip-path="url(#clip0_121_1481)">
<path fill-rule="evenodd" clip-rule="evenodd" d="M14.463 0.618137C14.463 5.50763 11.9718 8.92648 6.98935 10.8747L6.6535 11.0024C6.1355 11.1939 5.87082 11.7691 6.06232 12.2871C6.13412 12.4813 6.26448 12.6485 6.43536 12.7655C8.19588 13.9707 11.0362 14.6689 14.9562 14.86C16.0843 17.9124 19.0196 20.088 22.463 20.088H232C236.418 20.088 240 16.5063 240 12.088L240 -21.912C240 -26.3303 236.418 -29.912 232 -29.912L22.828 -29.912C18.4601 -29.912 14.8996 -26.4085 14.8291 -22.0412L14.463 0.618137Z" fill="#F1EAF6"/>
</g>
<defs>
<clipPath id="clip0_121_1481">
<rect width="14" height="17" fill="white"/>
</clipPath>
</defs>
</svg>
