<svg width="32" height="32" viewBox="0 0 32 32" fill="none" xmlns="http://www.w3.org/2000/svg">
<path d="M16 18.6667C14.8889 18.6667 13.9444 18.2778 13.1667 17.5C12.3889 16.7222 12 15.7778 12 14.6667V6.66669C12 5.55558 12.3889 4.61113 13.1667 3.83335C13.9444 3.05558 14.8889 2.66669 16 2.66669C17.1111 2.66669 18.0555 3.05558 18.8333 3.83335C19.6111 4.61113 20 5.55558 20 6.66669V14.6667C20 15.7778 19.6111 16.7222 18.8333 17.5C18.0555 18.2778 17.1111 18.6667 16 18.6667ZM14.6667 28V23.9C12.3555 23.5889 10.4444 22.5556 8.93332 20.8C7.42221 19.0445 6.66666 17 6.66666 14.6667H9.33332C9.33332 16.5111 9.98332 18.0834 11.2833 19.3834C12.5833 20.6834 14.1555 21.3334 16 21.3334C17.8444 21.3334 19.4167 20.6834 20.7167 19.3834C22.0167 18.0834 22.6667 16.5111 22.6667 14.6667H25.3333C25.3333 17 24.5778 19.0445 23.0667 20.8C21.5555 22.5556 19.6444 23.5889 17.3333 23.9V28H14.6667ZM16 16C16.3778 16 16.6944 15.8722 16.95 15.6167C17.2055 15.3611 17.3333 15.0445 17.3333 14.6667V6.66669C17.3333 6.28891 17.2055 5.97224 16.95 5.71669C16.6944 5.46113 16.3778 5.33335 16 5.33335C15.6222 5.33335 15.3055 5.46113 15.05 5.71669C14.7944 5.97224 14.6667 6.28891 14.6667 6.66669V14.6667C14.6667 15.0445 14.7944 15.3611 15.05 15.6167C15.3055 15.8722 15.6222 16 16 16Z" fill="#FD1887"/>
</svg>
