<svg width="32" height="32" viewBox="0 0 32 32" fill="none" xmlns="http://www.w3.org/2000/svg">
<path d="M25.52 17.248C25.568 16.848 25.6 16.432 25.6 16C25.6 15.568 25.568 15.152 25.504 14.752L28.208 12.64C28.448 12.448 28.512 12.096 28.368 11.824L25.808 7.39195C25.648 7.10395 25.312 7.00795 25.024 7.10395L21.84 8.38395C21.168 7.87195 20.464 7.45595 19.68 7.13595L19.2 3.74395C19.152 3.42395 18.88 3.19995 18.56 3.19995H13.44C13.12 3.19995 12.864 3.42395 12.816 3.74395L12.336 7.13595C11.552 7.45595 10.832 7.88795 10.176 8.38395L6.992 7.10395C6.704 6.99195 6.368 7.10395 6.208 7.39195L3.648 11.824C3.488 12.112 3.552 12.448 3.808 12.64L6.512 14.752C6.448 15.152 6.4 15.584 6.4 16C6.4 16.416 6.432 16.848 6.496 17.248L3.792 19.36C3.552 19.552 3.488 19.904 3.632 20.176L6.192 24.608C6.352 24.896 6.688 24.992 6.976 24.896L10.16 23.616C10.832 24.128 11.536 24.544 12.32 24.864L12.8 28.256C12.864 28.576 13.12 28.8 13.44 28.8H18.56C18.88 28.8 19.152 28.576 19.184 28.256L19.664 24.864C20.448 24.544 21.168 24.112 21.824 23.616L25.008 24.896C25.296 25.008 25.632 24.896 25.792 24.608L28.352 20.176C28.512 19.888 28.448 19.552 28.192 19.36L25.52 17.248V17.248ZM16 20.8C13.36 20.8 11.2 18.64 11.2 16C11.2 13.36 13.36 11.2 16 11.2C18.64 11.2 20.8 13.36 20.8 16C20.8 18.64 18.64 20.8 16 20.8Z" fill="#FD1887"/>
</svg>
